inDegrees=no
num_controls=7
num_derivatives=13
num_iterations=132
num_multipliers=7
num_parameters=0
num_slacks=7
num_states=26
objective=3.955937
objective_accelerations=0.563982
objective_balance=0.071227
objective_effort=0.462723
objective_height=2.816216
objective_ligament=0.041788
solver_duration=1425.498789
status=Solve_Succeeded
success=true
DataType=double
version=3
OpenSimVersion=4.4-2022-07-23-0e9fedc
endheader
time	/jointset/ground_pelvis/pelvis_tilt/value	/jointset/ground_pelvis/pelvis_tx/value	/jointset/ground_pelvis/pelvis_ty/value	/jointset/hip_l/hip_flexion_l/value	/jointset/hip_l/hip_adduction_l/value	/jointset/hip_l/hip_rotation_l/value	/jointset/back/lumbar_extension/value	/jointset/patellofemoral_l/patellar_flexion_l/value	/jointset/knee_l/knee_flexion_l/value	/jointset/knee_l/knee_adduction_l/value	/jointset/knee_l/knee_rotation_l/value	/jointset/ankle_l/ankle_angle_l/value	/jointset/subtalar_l/subtalar_angle_l/value	/jointset/ground_pelvis/pelvis_tilt/speed	/jointset/ground_pelvis/pelvis_tx/speed	/jointset/ground_pelvis/pelvis_ty/speed	/jointset/hip_l/hip_flexion_l/speed	/jointset/hip_l/hip_adduction_l/speed	/jointset/hip_l/hip_rotation_l/speed	/jointset/back/lumbar_extension/speed	/jointset/patellofemoral_l/patellar_flexion_l/speed	/jointset/knee_l/knee_flexion_l/speed	/jointset/knee_l/knee_adduction_l/speed	/jointset/knee_l/knee_rotation_l/speed	/jointset/ankle_l/ankle_angle_l/speed	/jointset/subtalar_l/subtalar_angle_l/speed	/forceset/tau_hip_flexion_l	/forceset/tau_hip_adduction_l	/forceset/tau_hip_rotation_l	/forceset/tau_knee_flexion_l	/forceset/tau_ankle_angle_l	/forceset/tau_subtalar_angle_l	/forceset/tau_lumbar_extension	lambda_cid13_p0	lambda_cid13_p1	lambda_cid13_p2	lambda_cid13_p3	lambda_cid13_p4	lambda_cid13_p5	lambda_cid14_p0	/jointset/ground_pelvis/pelvis_tilt/accel	/jointset/ground_pelvis/pelvis_tx/accel	/jointset/ground_pelvis/pelvis_ty/accel	/jointset/hip_l/hip_flexion_l/accel	/jointset/hip_l/hip_adduction_l/accel	/jointset/hip_l/hip_rotation_l/accel	/jointset/back/lumbar_extension/accel	/jointset/patellofemoral_l/patellar_flexion_l/accel	/jointset/knee_l/knee_flexion_l/accel	/jointset/knee_l/knee_adduction_l/accel	/jointset/knee_l/knee_rotation_l/accel	/jointset/ankle_l/ankle_angle_l/accel	/jointset/subtalar_l/subtalar_angle_l/accel	gamma_cid13_p0	gamma_cid13_p1	gamma_cid13_p2	gamma_cid13_p3	gamma_cid13_p4	gamma_cid13_p5	gamma_cid14_p0
0	-0.1595245359250582	0.05833597862012689	0.8979773499457845	0.3774920279260975	-0.2594488168616476	-0.2676597201554582	-0.0126506700172305	0.03223623128433045	0.03223623128433527	-0.1745329251994329	0.1694598374567291	-0.04231376238535053	-0.009634923726795202	0	0	0	0	0	0	0	0	0	0	0	0	0	0.1489916993948725	-0.09820315720750088	-0.05177913401380054	-0.3162658162731086	0.3417584604526553	-0.03208553000007774	-0.09153653683881284	68.93393183607105	-3.507581947951348	6.293467671437535	-24.68332029805865	-584.266249238157	-84.89382380962793	-38.91707339224882	-3.069561631756267	-1.736149079882691	-1.088876326564591	13.8763975817875	-0.4690122030632259	4.513850707726888	-6.197449173132784	14.21398965559522	14.21398965559	2.961620811825392	0.3608692683141731	4.399344469058565	0.4856193272304554	-1.871717528804536e-08	5.526730053155716e-07	4.193972473934921e-09	3.498773648174322e-08	1.165681235693028e-07	9.290851451873366e-08	5.543321275533401e-08
0.01	-0.1596713585543646	0.05825065291056306	0.8979243013571215	0.3781689895545627	-0.2594714138224894	-0.2674317768529236	-0.01296119035046203	0.03293253257624663	0.03293253257624505	-0.174386321276157	0.1694709441448135	-0.04209774906687165	-0.009610734687696453	-0.02921039518807703	-0.0169492550702501	-0.01057655731917407	0.1347426556156777	-0.004465626531682899	0.0453334309646921	-0.06163788212258201	0.1386804688026043	0.1386804688025746	0.02922550668808376	0.002249904846959199	0.04308406296959451	0.004864798857888118	0.143537581228238	-0.1014775268117522	-0.05078786125397138	-0.3106520625956576	0.3338713142217747	-0.02500493005783934	-0.086908318813691	66.62011334542379	-6.05969594469363	6.565718700582635	-23.94519493704305	-585.6633458754812	-89.49683004890547	-38.9368049110937	-2.823667299444841	-1.656923696337062	-1.037048058952296	13.17574219742116	-0.4273671973056712	4.504827202853639	-6.07703005344344	13.60809596892112	13.60809596892064	2.888651749636842	0.1613701976006414	4.245153581134153	0.4908717557210687	-4.445128054013617e-08	6.574371077801602e-07	5.570405843892055e-08	8.490322798839431e-08	-1.020413590790306e-07	1.019954332243365e-07	6.569873047102315e-08
0.02	-0.1601056629029705	0.05799931265514898	0.897766486670395	0.3801738862683809	-0.2595370729124645	-0.2667581516583398	-0.01387410396924385	0.03499824265144588	0.03499824265144669	-0.1739503295139402	0.1695054137023222	-0.04145445184465185	-0.009537105341888338	-0.05749634386062354	-0.03320290917004824	-0.02095321961271912	0.2655870170698917	-0.008612425826760427	0.08913637840991497	-0.1204786571100823	0.2738817566583307	0.2738817566583246	0.05787645946964714	0.004672573882469664	0.08545678074816013	0.009888061341899493	0.138083463061599	-0.1047518964160015	-0.04979658849407665	-0.3050383089182269	0.3259841679908875	-0.01792433011560123	-0.0822801007885692	64.43035780056596	-8.622451086562361	6.827016427696601	-23.4906897685771	-585.2457620667578	-93.88192453535453	-38.99504796440264	-2.884672328650286	-1.597028885792179	-1.048897321438788	13.09673874949475	-0.405246755742165	4.207754003833052	-5.638027746116504	13.51815346621961	13.51815346622505	2.846710030521285	0.3954221060244144	4.257075430852924	0.5173120524551259	-7.018538579222697e-08	7.622012102447488e-07	1.072141444039062e-07	1.348187194950454e-07	-3.206508417273641e-07	1.110823519299393e-07	7.59642481867123e-08
0.03	-0.1608182653312047	0.05758847517483179	0.8975054319602145	0.3834682852121599	-0.2596426252726914	-0.2656554636072466	-0.0153616773847017	0.03839854552690947	0.03839854552690419	-0.1732315389289275	0.1695657421820004	-0.0403918139813468	-0.009412690045053474	-0.0848379049984727	-0.04889083205219609	-0.03126297684220938	0.392634275507813	-0.01244924605116588	0.1311554367154946	-0.1766334701572534	0.4055407058207383	0.4055407058207626	0.08570617494434232	0.007350090478169728	0.1268575136064388	0.01499132595814962	0.1308349327811479	-0.09844351802470021	-0.04834160558372696	-0.2966953709604233	0.3148902792402404	-0.01847108820257445	-0.07660513058507425	60.87966908963988	-7.867589197910787	6.825797733330074	-21.38337956869717	-584.7476304197562	-91.06385292464283	-39.08965349654615	-2.63096177362269	-1.543583597498106	-1.022868099961813	12.40993818496454	-0.3657068802227949	4.162123855576152	-5.543824710578243	12.89403351487503	12.89403351487566	2.724917041813785	0.1974892869377137	4.049590851957593	0.5061511420995584	-9.266695903515277e-08	7.392040969206776e-07	2.067996310079589e-07	1.640806876483607e-07	-4.921682808552038e-07	5.06074342443728e-08	6.766345954514577e-08
0.04	-0.1617986961242694	0.0570229765440791	0.8971411090424873	0.3880134004991314	-0.2597851072800493	-0.2641399565507714	-0.01739872225594232	0.04309629146871786	0.04309629146871834	-0.1722396882420176	0.1696515603977661	-0.03892156506173046	-0.009237378606878295	-0.1110620168271577	-0.06413513925714848	-0.04160686112203175	0.5157302857066843	-0.01599835525289747	0.1717001794873038	-0.2303729482668737	0.5333703699280935	0.5333703699280987	0.1124884798538457	0.009770521097663977	0.1669789920104089	0.02006728960998452	0.123586402500768	-0.09213513963338486	-0.0468866226733011	-0.2883524330025917	0.3037963904896085	-0.01901784628953174	-0.07093016038153704	57.44121911639149	-7.119553042048921	6.811022454667506	-19.54029289533236	-582.6187699738701	-88.04230897843664	-39.21782145159128	-2.661182466817578	-1.508305750352968	-1.055722731505207	12.30648910168473	-0.3477045512074042	3.912890897078959	-5.154960758606385	12.75229645520914	12.75229645520462	2.637227917482888	0.3440049107832371	4.001224539991361	0.5118518595720988	-1.150814697624257e-07	7.135727317246751e-07	3.073763629860131e-07	1.929168099593392e-07	-6.627147500135489e-07	-1.130174810905287e-08	5.897986046322346e-08
0.05	-0.1630364793157605	0.05630750963947832	0.8966727861754781	0.3937708508808392	-0.2599613639100397	-0.2622279006022031	-0.0199605590613353	0.04905445008143317	0.04905445008143491	-0.1709850900866118	0.1697618059402467	-0.03705574809251017	-0.009011006981693449	-0.1363228864674247	-0.07885555142483623	-0.052090187529167	0.6351115807168382	-0.01916837731958664	0.2104179430893844	-0.2815964278662299	0.6576609745511569	0.6576609745511474	0.1382882488857305	0.0122590569493552	0.2060228193892961	0.02524898654809335	0.1170054510392287	-0.08915506210335272	-0.04563841532535796	-0.2825646659038846	0.2955328506638384	-0.01689535590494954	-0.06565773073363231	55.00651591549551	-7.599873563632967	6.870259463628219	-18.59065927216696	-580.8675281530647	-87.62152268414377	-39.37599360337984	-2.432772145607586	-1.438466597552672	-1.049642803817761	11.65671069675911	-0.2891014426916834	3.807234368245696	-5.046343818972597	12.17737403039629	12.1773740303971	2.530067970074795	0.1983388096225746	3.831736826281468	0.5274742373465068	-1.216305759376765e-07	5.515762568496704e-07	3.464888321148452e-07	1.971179898234669e-07	-7.564286913242712e-07	-6.766941857960301e-08	4.042530698370651e-08
0.06	-0.1645217177902466	0.05544792708368582	0.8960986290026973	0.4007026664118708	-0.2601668108423555	-0.2599374639623213	-0.02302269111439502	0.05623750105328904	0.0562375010532888	-0.1694767509260847	0.1698963490186956	-0.03480433785161211	-0.008731589261844298	-0.1605530734267599	-0.09295826949548931	-0.06277372227631908	0.7506033155701319	-0.02183641571795723	0.2473763177503894	-0.3304319978004961	0.7783488417558737	0.7783488417558787	0.1632366808789565	0.01463002829146542	0.2440976463459469	0.03067650854285171	0.1104244995777278	-0.08617498457331636	-0.04439020797741201	-0.2767768988051644	0.2872693108380713	-0.01477286552036258	-0.06038530108569824	52.66978731054844	-8.087900457315806	6.919937098095537	-17.87914858278733	-577.6992847064057	-87.02715910601822	-39.56021559934581	-2.455045930631314	-1.384766930945922	-1.095764399508572	11.52857707031271	-0.2473078175437012	3.561013108863841	-4.677378825588463	12.03174897153979	12.03174897154112	2.46696050975111	0.3204920088670217	3.807424455544205	0.5610168709020261	-1.27511665079158e-07	3.838380931460761e-07	3.830133322816048e-07	2.002819089529904e-07	-8.469075788308829e-07	-1.23803762234032e-07	2.145513437165927e-08
